<svg id="Layer_1" data-name="Layer 1" xmlns="http://www.w3.org/2000/svg" viewBox="0 0 141.7 147.9">
  <path d="M107.9,131.1a134.8,134.8,0,0,0,30.1,3.3h1.3" fill="#8c8c8c" stroke="#8c8c8c" stroke-miterlimit="10" stroke-width="4"/>
  <path d="M69.9,116.2a135.5,135.5,0,0,0,30,12.8" fill="#8c8c8c" stroke="#8c8c8c" stroke-miterlimit="10" stroke-width="4"/>
  <path d="M42.9,95.6A131.3,131.3,0,0,0,66,113.8" fill="#8c8c8c" stroke="#8c8c8c" stroke-miterlimit="10" stroke-width="4"/>
  <path d="M10.8,46.7a135.7,135.7,0,0,0,27,43.7" fill="#8c8c8c" stroke="#8c8c8c" stroke-miterlimit="10" stroke-width="4"/>
  <path d="M2,0A136.2,136.2,0,0,0,9.2,42.1" fill="#8c8c8c" stroke="#8c8c8c" stroke-miterlimit="10" stroke-width="4"/>
  <line x1="135.5" y1="127.6" x2="132.2" y2="121.9" fill="#8c8c8c" stroke="#8c8c8c" stroke-miterlimit="10" stroke-width="4"/>
  <polyline points="136.3 139.8 139.4 134.4 136.6 129.5" fill="#8c8c8c" stroke="#8c8c8c" stroke-miterlimit="10" stroke-width="4"/>
  <line x1="132.2" y1="146.9" x2="135.5" y2="141.2" fill="#8c8c8c" stroke="#8c8c8c" stroke-miterlimit="10" stroke-width="4"/>
</svg>
