<?xml version="1.0" encoding="utf-8"?>
<!-- Generator: Adobe Illustrator 25.4.1, SVG Export Plug-In . SVG Version: 6.00 Build 0)  -->
<svg version="1.1" id="Layer_1" xmlns="http://www.w3.org/2000/svg" xmlns:xlink="http://www.w3.org/1999/xlink" x="0px" y="0px"
	 viewBox="0 0 512 512" style="enable-background:new 0 0 512 512;" xml:space="preserve">
<style type="text/css">
	.st0{fill:#FFFFFF;}
</style>
<g>
	<path class="st0" d="M502.8,20C482.2-0.5,448-5.4,403.8,6c-41.3,10.7-89.4,34.9-139.1,70c-8.3,5.9-3.2,15.8,4.3,18.7
		c-8.4,6-16.9,12.2-25.2,18.8c-6.3,4.9-18.1-7.9-26.2-1.1c-18.6,15.6-37.1,32.4-54.7,50.1c-6.7,6.9-1.1,15.2,6.4,17.8
		c-7.4,7.5-14.6,15.2-21.5,22.9c-4.4-1.2-8.6-2.3-12.3-3.3c-3.8-1-7.9,0.2-10.4,3.1c-15.5,17.6-30,35.7-43.1,53.7
		c-6.3,8.6,2.4,14.7,9.4,17.3c-5.5,7.9-10.7,15.9-15.6,23.7c-7.1-1.8-17.4-6.7-22.5,1.7c-56.1,91.4-68.4,167.2-32.8,202.7
		c8.7,8.7,21.7,10.7,33.4,9.5c61.7-6.7,169-99.5,212.3-139.2c84.8-77.7,164.8-168.5,208.8-237c5.2-8.2-7.4-16.3-12.6-8.1
		c-43.3,67.5-122.3,157.2-206.3,234.1c-87.9,80.4-164,131-203.7,135.3c-9.6,1-16.8-0.7-21.2-5.2c-29.5-29.5-16.7-98.7,33.2-181.3
		c13.2,3.4,25.3,6.3,36.2,8.5c9.5,1.9,12.5-12.8,3-14.7c-3.9-0.8-8-1.7-12.2-2.6c4.6-7.3,9.5-14.6,14.7-21.9
		c42.2,16.7,49.9,25.8,51.3,28.3c-1.3,0.7-5.1,2-14.9,1.7c-11.6-0.4-7.9,15.1,3.1,15.1c10.2,0,22.3-1.6,26.1-11.2
		c1-2.5,1.7-6.5-0.4-11.3c-3.4-7.6-14.8-20.1-73.2-41.7c11.3-15.2,23.6-30.4,36.6-45.3c19.3,5.3,45.9,12,68.4,15.5
		c32.4,5,48.2,2.4,52.6-8.8c1-2.5,1.7-6.5-0.4-11.3c-3.5-7.8-15.3-20.5-76-42.7c15.1-14.8,30.7-29,46.5-42.3
		c26.1,7,48.2,11.8,65.4,14.2c29.3,4.1,44.3,1.2,48.5-9.4c1.4-3.5,1.3-7.4-0.4-11.1c-3-6.8-12.3-17.7-58.2-36
		c45.6-31.4,89.3-53,126.9-62.7c27-7,63.7-10.9,84.6,10.1c9.1,9.1,5.3,31.6-10.8,63.2c-4.4,8.6,9,15.5,13.4,6.8
		C514.6,61.7,517.3,34.5,502.8,20L502.8,20z M184.5,186.1c46.7,18,54.9,27.7,56.3,30.3c-2,1.1-10.3,3.8-39.5-1.1
		c-12-2-25-4.8-37.3-7.8C170.7,200.2,177.6,193.1,184.5,186.1z M285.5,101.5c31.8,13.6,38.1,21.2,39.3,23.4
		c-2.5,1.4-14.5,5.1-63.7-5.8C269.3,112.9,277.4,107,285.5,101.5L285.5,101.5z"/>
	<path class="st0" d="M72.7,354.1c9.7,0,9.7-15,0-15C63,339.1,63,354.1,72.7,354.1z"/>
	<path class="st0" d="M59.2,378.1c-9.7,0-9.7,15,0,15C68.8,393.1,68.8,378.1,59.2,378.1z"/>
	<path class="st0" d="M111.7,358.6c9.7,0,9.7-15,0-15C102,343.6,102,358.6,111.7,358.6z"/>
	<path class="st0" d="M135.7,262.6c9.7,0,9.7-15,0-15C126,247.6,126,262.6,135.7,262.6z"/>
	<path class="st0" d="M176.2,238.6c-9.7,0-9.7,15,0,15C185.8,253.6,185.8,238.6,176.2,238.6z"/>
	<path class="st0" d="M186.7,286.6c9.7,0,9.7-15,0-15C177,271.6,177,286.6,186.7,286.6z"/>
	<path class="st0" d="M219.7,156.1c-9.7,0-9.7,15,0,15C229.3,171.1,229.3,156.1,219.7,156.1z"/>
	<path class="st0" d="M258.7,148.6c-9.7,0-9.7,15,0,15C268.3,163.6,268.3,148.6,258.7,148.6z"/>
	<path class="st0" d="M265.7,193.1c9.7,0,9.7-15,0-15C256,178.1,256,193.1,265.7,193.1z"/>
	<path class="st0" d="M324.7,88.6c9.7,0,9.7-15,0-15C315,73.6,315,88.6,324.7,88.6z"/>
	<path class="st0" d="M366.7,55.6c-9.7,0-9.7,15,0,15C376.3,70.6,376.3,55.6,366.7,55.6z"/>
	<path class="st0" d="M359.2,106.6c9.7,0,9.7-15,0-15C349.5,91.6,349.5,106.6,359.2,106.6z"/>
</g>
</svg>
