<?xml version="1.0" encoding="utf-8"?>
<!-- Generator: Adobe Illustrator 25.4.1, SVG Export Plug-In . SVG Version: 6.00 Build 0)  -->
<svg version="1.1" id="Layer_1" xmlns="http://www.w3.org/2000/svg" xmlns:xlink="http://www.w3.org/1999/xlink" x="0px" y="0px"
	 viewBox="0 0 525.3 203" style="enable-background:new 0 0 525.3 203;" xml:space="preserve">
<style type="text/css">
	.st0{fill:#212121;}
	.st1{font-family:'MyriadPro-Regular';}
	.st2{font-size:183.9983px;}
	.st3{fill:none;stroke:#212121;stroke-width:3;stroke-miterlimit:10;}
</style>
<text transform="matrix(1.02 0 0 1 1.5 155.5078)" class="st0 st1 st2">B</text>
<text transform="matrix(1.02 0 0 1 1.5 155.5078)" class="st3 st1 st2">B</text>
<text transform="matrix(1.02 0 0 1 106.4668 155.5078)" class="st0 st1 st2">a</text>
<text transform="matrix(1.02 0 0 1 106.4668 155.5078)" class="st3 st1 st2">a</text>
<text transform="matrix(1.02 0 0 1 192.2324 155.5078)" class="st0 st1 st2">k</text>
<text transform="matrix(1.02 0 0 1 192.2324 155.5078)" class="st3 st1 st2">k</text>
<text transform="matrix(1.02 0 0 1 281.5 155.5078)" class="st0 st1 st2">e</text>
<text transform="matrix(1.02 0 0 1 281.5 155.5078)" class="st3 st1 st2">e</text>
<text transform="matrix(1.02 0 0 1 372.1938 155.5078)" class="st0 st1 st2">r</text>
<text transform="matrix(1.02 0 0 1 372.1938 155.5078)" class="st3 st1 st2">r</text>
<text transform="matrix(1.02 0 0 1 435.3823 155.5078)" class="st0 st1 st2">y</text>
<text transform="matrix(1.02 0 0 1 435.3823 155.5078)" class="st3 st1 st2">y</text>
</svg>
